<?xml version="1.0" standalone="no"?><!DOCTYPE svg PUBLIC "-//W3C//DTD SVG 1.1//EN" "http://www.w3.org/Graphics/SVG/1.1/DTD/svg11.dtd"><svg t="1526226521653" class="icon" style="" viewBox="0 0 1024 1024" version="1.1" xmlns="http://www.w3.org/2000/svg" p-id="2444" xmlns:xlink="http://www.w3.org/1999/xlink" width="64" height="64"><defs><style type="text/css"></style></defs><path d="M704 288a96 96 0 1 1 192.064 0.064A96 96 0 0 1 704 288z m254.4-158.4A224 224 0 0 0 578.304 256L373.632 566.208c-27.52 1.408-54.784 8.448-79.936 20.992L135.808 463.808A84.032 84.032 0 0 0 32.384 596.16l155.904 121.92a202.048 202.048 0 1 0 394.752 14.592l249.024-222.976a224 224 0 0 0 126.4-380.096zM384 902.72A134.72 134.72 0 0 1 249.28 768l0.064-2.112 66.944 52.288a83.84 83.84 0 0 0 103.424-132.352l-63.488-49.664A134.72 134.72 0 1 1 384 902.72zM800 448a160 160 0 1 1 0-320 160 160 0 0 1 0 320z" p-id="2445" fill="#167ca0"></path></svg>